<?xml version="1.0" encoding="UTF-8" standalone="no"?>
<!-- Created with Inkscape (http://www.inkscape.org/) -->

<svg
   xmlns:dc="http://purl.org/dc/elements/1.1/"
   xmlns:cc="http://creativecommons.org/ns#"
   xmlns:rdf="http://www.w3.org/1999/02/22-rdf-syntax-ns#"
   xmlns:svg="http://www.w3.org/2000/svg"
   xmlns="http://www.w3.org/2000/svg"
   version="1.1"
   width="300"
   height="235"
   id="svg2">
  <defs
     id="defs4">
	
	
	
	
	
	

	
	
	
	
	
	
</defs>
  <metadata
     id="metadata7">
    <rdf:RDF>
      <cc:Work
         rdf:about="">
        <dc:format>image/svg+xml</dc:format>
        <dc:type
           rdf:resource="http://purl.org/dc/dcmitype/StillImage" />
        <dc:title></dc:title>
      </cc:Work>
    </rdf:RDF>
  </metadata>
  <g
     transform="translate(0,-817.36218)"
     id="layer1">





<g
   transform="matrix(0.78491286,0,0,0.78491286,-972.12018,-72.845919)"
   id="g3244">
  <path
     d="m 1442.9581,1196.8425 -0.242,234.3159 -59.4601,-20.4178 -0.4185,-274.2048 75.8973,21.1864 c 48.5826,13.7861 78.3137,40.5845 77.8302,87.5507 -0.4829,54.6248 -25.8649,75.8164 -68.8533,55.8404 l 0,-101.2762 c 0,-14.941 -24.7536,-25.8506 -24.7536,-2.9946 z"
     id="path7-0-5"
     style="fill:#000000;fill-opacity:1;fill-rule:evenodd" />
  <path
     d="m 1370.7136,1303.1522 -8.9415,2.8809 -86.5464,31.0437 c -18.2193,8.3547 -33.4371,13.7582 -33.5335,27.3708 0.4569,17.2306 27.4593,25.6141 66.9974,32.2183 21.0698,4.2232 42.5958,1.3924 61.026,-2.5123 l 0.015,-32.4651 c 0,0 -34.1651,13.278 -42.2947,14.3829 l -16.4389,-0.09 c -12.2037,-0.067 -17.8867,-7.8843 -5.7302,-12.0759 l 65.4355,-24.7626 0.011,-35.9902 z"
     id="path9"
     style="fill:#000000;fill-opacity:1;fill-rule:evenodd" />
  <path
     d="m 1524.5024,1317.7768 c -22.722,-0.075 -54.1883,6.1167 -69.7875,13.3735 l 0,37.0026 41.1316,-15.041 32.581,-10.3583 c 33.9325,-5.5872 47.4232,6.2615 14.3731,16.1649 l -88.0833,32.2321 -0.1072,35.8824 128.695,-46.2998 c 14.2026,-4.9527 34.177,-14.9519 34.225,-27.2419 -3.4472,-19.028 -32.0697,-30.1323 -76.5199,-34.8392 -3.9869,-0.4111 -7.9933,-0.6688 -11.9728,-0.7879 -1.5161,-0.044 -3.0225,-0.083 -4.5372,-0.088 z"
     id="path9-8"
     style="fill:#000000;fill-opacity:1;fill-rule:evenodd" />
</g>
</g>
</svg>
